<svg id="Capa_1" data-name="Capa 1" xmlns="http://www.w3.org/2000/svg" viewBox="0 0 173.13 169.13"><defs><style>.cls-1{fill:#00c059;}.cls-2{fill:#fff;fill-rule:evenodd;}.cls-3{fill:none;stroke:#fff;stroke-miterlimit:10;stroke-width:3.5px;}</style></defs><path class="cls-1" d="M86.57,7.08h0a77.49,77.49,0,0,1,77.49,77.49v77.49a0,0,0,0,1,0,0H86.57A77.49,77.49,0,0,1,9.08,84.57v0A77.49,77.49,0,0,1,86.57,7.08Z"/><path class="cls-2" d="M68.59,53.79c-1.35-3-2.77-3-4-3.11-1.05,0-2.25,0-3.45,0a6.62,6.62,0,0,0-4.8,2.25,20.19,20.19,0,0,0-6.3,15c0,8.86,6.45,17.42,7.35,18.62s12.45,20,30.74,27.17c15.21,6,18.3,4.81,21.6,4.51s10.65-4.36,12.15-8.56,1.5-7.81,1-8.56-1.65-1.2-3.45-2.1-10.65-5.26-12.3-5.86-2.85-.9-4,.91-4.64,5.85-5.69,7-2.11,1.35-3.91.45A49.21,49.21,0,0,1,79,92.6,54,54,0,0,1,69,80.13c-1-1.8,0-2.69.79-3.67a55,55,0,0,0,4.5-6.15,3.33,3.33,0,0,0-.15-3.16C73.69,66.25,70.19,57.35,68.59,53.79Z"/><rect class="cls-3" x="22.41" y="20.42" width="128.3" height="128.3" rx="64.15"/></svg>